# xmcd
#
# Track frame offsets:
#	150
#	2613
#	16827
#	34142
#	43083
#	52429
#	67883
#	80839
#	96746
#	111965
#	124090
#	135566
#	150318
#	160001
#	189114
#	200766
#	215679
#	232217
#	243826
#	256001
#	266474
#	276807
#
# Disc length: 3856 seconds
#
# Revision: 1
# Processed by: cddbd v1.5.2PL0 Copyright (c) Steve Scherf et al.
# Submitted via: audiograbber 1.83.01
#
DISCID=360f0e16
DTITLE=E. H. King Music - E. H. King Music 033
DYEAR=2003
DGENRE=Country
TTITLE0=Intro  - Don Powell
TTITLE1=Texas Is  - Babara Dunn
TTITLE2=I Prayed And I Prayed  - Joe Paul Nichols
TTITLE3=The Rock Country Boogie  - Ray R Jones
TTITLE4=Less Than Nothing  - William Ray
TTITLE5=And It´s Really Gonna Happen  - Wally Storm
TTITLE6=Silent Weeping  - Phil Coley
TTITLE7=It´s Bad Feeling I Get  - Phil Coley
TTITLE8=Cold Day In Hell  - Anna Logan
TTITLE9=That Git Up And Go  - Ray R Jones
TTITLE10=Pushin A Wheelbarrow Uphill  - Don Powell
TTITLE11=Djs Are Ok  - J Gale Kilgore
TTITLE12=Country Western Swing  - Ray R Jones
TTITLE13=When Your Love Came Over Me  - Gregory Warren
TTITLE14=Love Is For The Birds  - Ray R. Jones
TTITLE15=Down Comes A Man  - Don Powell
TTITLE16=Grounded Angel  - Loman Craig
TTITLE17=Cowboys Sweetheart  - Joyce Leonard
TTITLE18=He Wants Only Love Return  - Tony Ansems
TTITLE19=I´m A Looser Today  - Delmer Dorey
TTITLE20=Day After Day  - Loman Craig
TTITLE21=Few Good Things In Life  - Bobby Lloyd
EXTD=
EXTT0=
EXTT1=
EXTT2=
EXTT3=
EXTT4=
EXTT5=
EXTT6=
EXTT7=
EXTT8=
EXTT9=
EXTT10=
EXTT11=
EXTT12=
EXTT13=
EXTT14=
EXTT15=
EXTT16=
EXTT17=
EXTT18=
EXTT19=
EXTT20=
EXTT21=
PLAYORDER=
